<svg id="Renesas_Logo_-_White" data-name="Renesas Logo - White" xmlns="http://www.w3.org/2000/svg" width="124.976" height="20" viewBox="0 0 124.976 20">
  <path id="Renesas_Logo_-_White-2" data-name="Renesas Logo - White" d="M40.977,3.59c2.65,0,3.239.408,4.252,1.587l6.5,7.632c.1.113.147.139.251.139V3.59h2.511V16.1H51.8c-1.732,0-2.511-.139-3.594-1.414L41.5,6.808a.277.277,0,0,0-.251-.139V16.1H38.734V3.59Zm-12.4,1.787H34.9A.684.684,0,0,0,35.574,5l.745-1.414H27.234c-4.035,0-6,1.466-6,4.484v3.469c0,3.217,2.018,4.579,6.01,4.579h7.88a.684.684,0,0,0,.675-.373l.745-1.414H28.577c-2.1,0-2.84-.711-2.84-2.125V10.476h8.3a.675.675,0,0,0,.675-.382l.7-1.422H25.693V7.666C25.693,6.478,25.979,5.377,28.577,5.377Zm36.1,0h6.33A.683.683,0,0,0,71.684,5l.745-1.414H63.336c-4.044,0-6.01,1.466-6.01,4.484v3.469c0,3.217,2.026,4.579,6.01,4.579h7.88a.683.683,0,0,0,.676-.373l.745-1.414h-8.01c-2.1,0-2.84-.711-2.84-2.125V10.476h8.3a.693.693,0,0,0,.684-.382L71.5,8.672H61.786V7.666c0-1.188.268-2.29,2.849-2.29Zm18.142,6.5c1.732.564,2.234.8,2.234,1.448s-.338,1-2.477,1H75.27a.693.693,0,0,0-.684.373L73.849,16.1H84.241c4.209,0,5.776-1.318,5.776-3.148,0-1.058-.6-2.463-4.538-3.755l-4.148-1.4c-1.732-.564-2.225-.815-2.225-1.466,0-.512.294-.989,2.477-.989H87.8a.7.7,0,0,0,.684-.373l.71-1.388H79.945c-4.209,0-5.785,1.318-5.785,3.148,0,1.058.606,2.472,4.546,3.764l4.156,1.37ZM120.446,9.2l-4.156-1.4c-1.732-.564-2.234-.815-2.234-1.466,0-.512.347-.989,2.485-.989h6.217a.683.683,0,0,0,.676-.373l.745-1.414H114.9c-4.209,0-5.785,1.318-5.785,3.148,0,1.058.6,2.472,4.546,3.764l4.156,1.37c1.732.564,2.234.8,2.234,1.448s-.338,1-2.477,1h-8.47l-6.546-10.7h-2.485A3.815,3.815,0,0,0,96.252,5.6L89.844,16.1h4.33l5.291-9.366c.13-.225.234-.225.347-.225l4.408,7.805h-4.8a.685.685,0,0,0-.676.373L98,16.1h21.2c4.209,0,5.776-1.318,5.776-3.148,0-1.058-.6-2.463-4.546-3.755ZM.866,9.661v5.845H6.728V9.661ZM19.441,3.226c-1-3.833-11.838-4.4-18.731-.9A1.082,1.082,0,0,0,.1,2.966s-.1.59-.1.624c0,.208.191.165.268.113a13.05,13.05,0,0,1,2.84-1.318c4.364-1.318,9.881-1.362,10.868,1.492.675,1.995-2.113,3.634-3.663,4.38-.6.286-.805.546-.866.867a1.736,1.736,0,0,0,.4,1.153c2.277,3.244,8.746,7.979,15.137,9.67a.622.622,0,0,0,.5,0c.061,0,.121-.078,0-.13a31.475,31.475,0,0,1-10.314-8.959,2.309,2.309,0,0,1-.563-1.448c0-.321.329-.59.927-.867,2.26-1.058,4.59-2.654,3.905-5.316Z" transform="translate(0 0)" fill="#00026d"/>
</svg>
